<?xml version="1.0" encoding="UTF-8" standalone="no"?>
<!-- Created with Inkscape (http://www.inkscape.org/) -->

<svg
   xmlns:dc="http://purl.org/dc/elements/1.1/"
   xmlns:cc="http://creativecommons.org/ns#"
   xmlns:rdf="http://www.w3.org/1999/02/22-rdf-syntax-ns#"
   xmlns:svg="http://www.w3.org/2000/svg"
   xmlns="http://www.w3.org/2000/svg"
   xmlns:sodipodi="http://sodipodi.sourceforge.net/DTD/sodipodi-0.dtd"
   xmlns:inkscape="http://www.inkscape.org/namespaces/inkscape"
   width="210mm"
   height="297mm"
   viewBox="0 0 210 297"
   version="1.1"
   id="svg8"
   inkscape:version="0.92.4 5da689c313, 2019-01-14"
   sodipodi:docname="effectors.svg">
  <defs
     id="defs2" />
  <sodipodi:namedview
     id="base"
     pagecolor="#ffffff"
     bordercolor="#666666"
     borderopacity="1.0"
     inkscape:pageopacity="0.0"
     inkscape:pageshadow="2"
     inkscape:zoom="0.41444759"
     inkscape:cx="-2408.8034"
     inkscape:cy="1330.189"
     inkscape:document-units="mm"
     inkscape:current-layer="layer1"
     showgrid="false"
     objecttolerance="1"
     inkscape:window-width="1920"
     inkscape:window-height="1024"
     inkscape:window-x="0"
     inkscape:window-y="0"
     inkscape:window-maximized="1" />
  <metadata
     id="metadata5">
    <rdf:RDF>
      <cc:Work
         rdf:about="">
        <dc:format>image/svg+xml</dc:format>
        <dc:type
           rdf:resource="http://purl.org/dc/dcmitype/StillImage" />
        <dc:title></dc:title>
      </cc:Work>
    </rdf:RDF>
  </metadata>
  <g
     inkscape:label="Layer 1"
     inkscape:groupmode="layer"
     id="layer1">
    <g
       id="g1559"
       inkscape:export-xdpi="200"
       inkscape:export-ydpi="200"
       transform="translate(-109.2429,-144.00201)">
      <g
         id="g1491">
        <path
           inkscape:connector-curvature="0"
           style="fill:#3e3e3e;fill-opacity:1;stroke:none;stroke-width:0.63169628px;stroke-linecap:butt;stroke-linejoin:miter;stroke-opacity:1"
           d="m -573.94332,-63.60746 c -5.10391,0 -8.52847,1.791394 -4.82161,2.784642 3.7068,0.993243 6.54148,3.77661 6.54148,3.77661 v 33.462947 h 22.22168 v -33.462947 c 0,0 2.83468,-2.783367 6.54146,-3.77661 3.70687,-0.993248 0.28237,-2.784642 -4.82162,-2.784642 h -11.53337 -2.59463 z"
           id="path1397"
           sodipodi:nodetypes="sccccccsccs" />
        <path
           style="fill:none;stroke:#eaa300;stroke-width:5;stroke-linecap:round;stroke-linejoin:miter;stroke-miterlimit:4;stroke-dasharray:none;stroke-opacity:1"
           d="m -573.97666,-55.669495 24.78255,6.64046"
           id="path1393"
           inkscape:connector-curvature="0"
           sodipodi:nodetypes="cc" />
        <path
           inkscape:connector-curvature="0"
           id="path1395"
           d="m -573.97666,-48.785386 24.78255,6.64046"
           style="fill:none;stroke:#eaa300;stroke-width:5;stroke-linecap:round;stroke-linejoin:miter;stroke-miterlimit:4;stroke-dasharray:none;stroke-opacity:1"
           sodipodi:nodetypes="cc" />
      </g>
      <g
         inkscape:transform-center-x="-19.975201"
         transform="rotate(90,-561.11261,-23.620161)"
         inkscape:transform-center-y="-2.0745008e-06"
         id="g1499">
        <path
           sodipodi:nodetypes="sccccccsccs"
           id="path1493"
           d="m -573.94332,-63.60746 c -5.10391,0 -8.52847,1.791394 -4.82161,2.784642 3.7068,0.993243 6.54148,3.77661 6.54148,3.77661 v 33.462947 h 22.22168 v -33.462947 c 0,0 2.83468,-2.783367 6.54146,-3.77661 3.70687,-0.993248 0.28237,-2.784642 -4.82162,-2.784642 h -11.53337 -2.59463 z"
           style="fill:#3e3e3e;fill-opacity:1;stroke:none;stroke-width:0.63169628px;stroke-linecap:butt;stroke-linejoin:miter;stroke-opacity:1"
           inkscape:connector-curvature="0" />
        <path
           sodipodi:nodetypes="cc"
           inkscape:connector-curvature="0"
           id="path1495"
           d="m -573.97666,-55.669495 24.78255,6.64046"
           style="fill:none;stroke:#eaa300;stroke-width:5;stroke-linecap:round;stroke-linejoin:miter;stroke-miterlimit:4;stroke-dasharray:none;stroke-opacity:1" />
        <path
           sodipodi:nodetypes="cc"
           style="fill:none;stroke:#eaa300;stroke-width:5;stroke-linecap:round;stroke-linejoin:miter;stroke-miterlimit:4;stroke-dasharray:none;stroke-opacity:1"
           d="m -573.97666,-48.785386 24.78255,6.64046"
           id="path1497"
           inkscape:connector-curvature="0" />
      </g>
      <g
         id="g1531"
         inkscape:transform-center-y="19.975201"
         transform="rotate(180,-561.11261,-23.62016)"
         inkscape:transform-center-x="-3.0686606e-06">
        <path
           inkscape:connector-curvature="0"
           style="fill:#3e3e3e;fill-opacity:1;stroke:none;stroke-width:0.63169628px;stroke-linecap:butt;stroke-linejoin:miter;stroke-opacity:1"
           d="m -573.94332,-63.60746 c -5.10391,0 -8.52847,1.791394 -4.82161,2.784642 3.7068,0.993243 6.54148,3.77661 6.54148,3.77661 v 33.462947 h 22.22168 v -33.462947 c 0,0 2.83468,-2.783367 6.54146,-3.77661 3.70687,-0.993248 0.28237,-2.784642 -4.82162,-2.784642 h -11.53337 -2.59463 z"
           id="path1525"
           sodipodi:nodetypes="sccccccsccs" />
        <path
           style="fill:none;stroke:#eaa300;stroke-width:5;stroke-linecap:round;stroke-linejoin:miter;stroke-miterlimit:4;stroke-dasharray:none;stroke-opacity:1"
           d="m -573.97666,-55.669495 24.78255,6.64046"
           id="path1527"
           inkscape:connector-curvature="0"
           sodipodi:nodetypes="cc" />
        <path
           inkscape:connector-curvature="0"
           id="path1529"
           d="m -573.97666,-48.785386 24.78255,6.64046"
           style="fill:none;stroke:#eaa300;stroke-width:5;stroke-linecap:round;stroke-linejoin:miter;stroke-miterlimit:4;stroke-dasharray:none;stroke-opacity:1"
           sodipodi:nodetypes="cc" />
      </g>
      <g
         inkscape:transform-center-x="19.9752"
         transform="rotate(-90,-561.11261,-23.620159)"
         inkscape:transform-center-y="2.7221321e-06"
         id="g1539">
        <path
           sodipodi:nodetypes="sccccccsccs"
           id="path1533"
           d="m -573.94332,-63.60746 c -5.10391,0 -8.52847,1.791394 -4.82161,2.784642 3.7068,0.993243 6.54148,3.77661 6.54148,3.77661 v 33.462947 h 22.22168 v -33.462947 c 0,0 2.83468,-2.783367 6.54146,-3.77661 3.70687,-0.993248 0.28237,-2.784642 -4.82162,-2.784642 h -11.53337 -2.59463 z"
           style="fill:#3e3e3e;fill-opacity:1;stroke:none;stroke-width:0.63169628px;stroke-linecap:butt;stroke-linejoin:miter;stroke-opacity:1"
           inkscape:connector-curvature="0" />
        <path
           sodipodi:nodetypes="cc"
           inkscape:connector-curvature="0"
           id="path1535"
           d="m -573.97666,-55.669495 24.78255,6.64046"
           style="fill:none;stroke:#eaa300;stroke-width:5;stroke-linecap:round;stroke-linejoin:miter;stroke-miterlimit:4;stroke-dasharray:none;stroke-opacity:1" />
        <path
           sodipodi:nodetypes="cc"
           style="fill:none;stroke:#eaa300;stroke-width:5;stroke-linecap:round;stroke-linejoin:miter;stroke-miterlimit:4;stroke-dasharray:none;stroke-opacity:1"
           d="m -573.97666,-48.785386 24.78255,6.64046"
           id="path1537"
           inkscape:connector-curvature="0" />
      </g>
    </g>
    <circle
       style="opacity:1;fill:#3e3e3e;fill-opacity:1;stroke:#eaa300;stroke-width:5;stroke-linecap:round;stroke-linejoin:round;stroke-miterlimit:4;stroke-dasharray:none;stroke-dashoffset:0;stroke-opacity:1"
       id="path1541"
       cx="-670.35553"
       cy="-167.62216"
       r="14.748623"
       inkscape:export-xdpi="200"
       inkscape:export-ydpi="200" />
    <g
       transform="translate(-11.248503,-144.00201)"
       inkscape:export-ydpi="200"
       inkscape:export-xdpi="200"
       id="g1644">
      <g
         id="g1618">
        <path
           sodipodi:nodetypes="sccccccsccs"
           id="path1612"
           d="m -573.94332,-63.60746 c -5.10391,0 -8.52847,1.791394 -4.82161,2.784642 3.7068,0.993243 6.54148,3.77661 6.54148,3.77661 v 33.462947 h 22.22168 v -33.462947 c 0,0 2.83468,-2.783367 6.54146,-3.77661 3.70687,-0.993248 0.28237,-2.784642 -4.82162,-2.784642 h -11.53337 -2.59463 z"
           style="fill:#3e3e3e;fill-opacity:1;stroke:none;stroke-width:0.63169628px;stroke-linecap:butt;stroke-linejoin:miter;stroke-opacity:1"
           inkscape:connector-curvature="0" />
        <path
           sodipodi:nodetypes="cc"
           inkscape:connector-curvature="0"
           id="path1614"
           d="m -573.97666,-55.669495 24.78255,6.64046"
           style="fill:none;stroke:#009b2a;stroke-width:5;stroke-linecap:round;stroke-linejoin:miter;stroke-miterlimit:4;stroke-dasharray:none;stroke-opacity:1" />
        <path
           sodipodi:nodetypes="cc"
           style="fill:none;stroke:#009b2a;stroke-width:5;stroke-linecap:round;stroke-linejoin:miter;stroke-miterlimit:4;stroke-dasharray:none;stroke-opacity:1"
           d="m -573.97666,-48.785386 24.78255,6.64046"
           id="path1616"
           inkscape:connector-curvature="0" />
      </g>
      <g
         id="g1626"
         inkscape:transform-center-y="-2.0745008e-06"
         transform="rotate(90,-561.11261,-23.620161)"
         inkscape:transform-center-x="-19.975201">
        <path
           inkscape:connector-curvature="0"
           style="fill:#3e3e3e;fill-opacity:1;stroke:none;stroke-width:0.63169628px;stroke-linecap:butt;stroke-linejoin:miter;stroke-opacity:1"
           d="m -573.94332,-63.60746 c -5.10391,0 -8.52847,1.791394 -4.82161,2.784642 3.7068,0.993243 6.54148,3.77661 6.54148,3.77661 v 33.462947 h 22.22168 v -33.462947 c 0,0 2.83468,-2.783367 6.54146,-3.77661 3.70687,-0.993248 0.28237,-2.784642 -4.82162,-2.784642 h -11.53337 -2.59463 z"
           id="path1620"
           sodipodi:nodetypes="sccccccsccs" />
        <path
           style="fill:none;stroke:#009b2a;stroke-width:5;stroke-linecap:round;stroke-linejoin:miter;stroke-miterlimit:4;stroke-dasharray:none;stroke-opacity:1"
           d="m -573.97666,-55.669495 24.78255,6.64046"
           id="path1622"
           inkscape:connector-curvature="0"
           sodipodi:nodetypes="cc" />
        <path
           inkscape:connector-curvature="0"
           id="path1624"
           d="m -573.97666,-48.785386 24.78255,6.64046"
           style="fill:none;stroke:#009b2a;stroke-width:5;stroke-linecap:round;stroke-linejoin:miter;stroke-miterlimit:4;stroke-dasharray:none;stroke-opacity:1"
           sodipodi:nodetypes="cc" />
      </g>
      <g
         inkscape:transform-center-x="-3.0686606e-06"
         transform="rotate(180,-561.11261,-23.62016)"
         inkscape:transform-center-y="19.975201"
         id="g1634">
        <path
           sodipodi:nodetypes="sccccccsccs"
           id="path1628"
           d="m -573.94332,-63.60746 c -5.10391,0 -8.52847,1.791394 -4.82161,2.784642 3.7068,0.993243 6.54148,3.77661 6.54148,3.77661 v 33.462947 h 22.22168 v -33.462947 c 0,0 2.83468,-2.783367 6.54146,-3.77661 3.70687,-0.993248 0.28237,-2.784642 -4.82162,-2.784642 h -11.53337 -2.59463 z"
           style="fill:#3e3e3e;fill-opacity:1;stroke:none;stroke-width:0.63169628px;stroke-linecap:butt;stroke-linejoin:miter;stroke-opacity:1"
           inkscape:connector-curvature="0" />
        <path
           sodipodi:nodetypes="cc"
           inkscape:connector-curvature="0"
           id="path1630"
           d="m -573.97666,-55.669495 24.78255,6.64046"
           style="fill:none;stroke:#009b2a;stroke-width:5;stroke-linecap:round;stroke-linejoin:miter;stroke-miterlimit:4;stroke-dasharray:none;stroke-opacity:1" />
        <path
           sodipodi:nodetypes="cc"
           style="fill:none;stroke:#009b2a;stroke-width:5;stroke-linecap:round;stroke-linejoin:miter;stroke-miterlimit:4;stroke-dasharray:none;stroke-opacity:1"
           d="m -573.97666,-48.785386 24.78255,6.64046"
           id="path1632"
           inkscape:connector-curvature="0" />
      </g>
      <g
         id="g1642"
         inkscape:transform-center-y="2.7221321e-06"
         transform="rotate(-90,-561.11261,-23.620159)"
         inkscape:transform-center-x="19.9752">
        <path
           inkscape:connector-curvature="0"
           style="fill:#3e3e3e;fill-opacity:1;stroke:none;stroke-width:0.63169628px;stroke-linecap:butt;stroke-linejoin:miter;stroke-opacity:1"
           d="m -573.94332,-63.60746 c -5.10391,0 -8.52847,1.791394 -4.82161,2.784642 3.7068,0.993243 6.54148,3.77661 6.54148,3.77661 v 33.462947 h 22.22168 v -33.462947 c 0,0 2.83468,-2.783367 6.54146,-3.77661 3.70687,-0.993248 0.28237,-2.784642 -4.82162,-2.784642 h -11.53337 -2.59463 z"
           id="path1636"
           sodipodi:nodetypes="sccccccsccs" />
        <path
           style="fill:none;stroke:#009b2a;stroke-width:5;stroke-linecap:round;stroke-linejoin:miter;stroke-miterlimit:4;stroke-dasharray:none;stroke-opacity:1"
           d="m -573.97666,-55.669495 24.78255,6.64046"
           id="path1638"
           inkscape:connector-curvature="0"
           sodipodi:nodetypes="cc" />
        <path
           inkscape:connector-curvature="0"
           id="path1640"
           d="m -573.97666,-48.785386 24.78255,6.64046"
           style="fill:none;stroke:#009b2a;stroke-width:5;stroke-linecap:round;stroke-linejoin:miter;stroke-miterlimit:4;stroke-dasharray:none;stroke-opacity:1"
           sodipodi:nodetypes="cc" />
      </g>
    </g>
    <circle
       inkscape:export-ydpi="200"
       inkscape:export-xdpi="200"
       r="14.748623"
       cy="-167.62216"
       cx="-572.36115"
       id="circle1646"
       style="opacity:1;fill:#3e3e3e;fill-opacity:1;stroke:#009b2a;stroke-width:5;stroke-linecap:round;stroke-linejoin:round;stroke-miterlimit:4;stroke-dasharray:none;stroke-dashoffset:0;stroke-opacity:1" />
    <g
       id="g1680"
       inkscape:export-xdpi="200"
       inkscape:export-ydpi="200"
       transform="translate(-109.2429,-50.795613)">
      <g
         id="g1654">
        <path
           inkscape:connector-curvature="0"
           style="fill:#3e3e3e;fill-opacity:1;stroke:none;stroke-width:0.63169628px;stroke-linecap:butt;stroke-linejoin:miter;stroke-opacity:1"
           d="m -573.94332,-63.60746 c -5.10391,0 -8.52847,1.791394 -4.82161,2.784642 3.7068,0.993243 6.54148,3.77661 6.54148,3.77661 v 33.462947 h 22.22168 v -33.462947 c 0,0 2.83468,-2.783367 6.54146,-3.77661 3.70687,-0.993248 0.28237,-2.784642 -4.82162,-2.784642 h -11.53337 -2.59463 z"
           id="path1648"
           sodipodi:nodetypes="sccccccsccs" />
        <path
           style="fill:none;stroke:#0029c1;stroke-width:5;stroke-linecap:round;stroke-linejoin:miter;stroke-miterlimit:4;stroke-dasharray:none;stroke-opacity:1"
           d="m -573.97666,-55.669495 24.78255,6.64046"
           id="path1650"
           inkscape:connector-curvature="0"
           sodipodi:nodetypes="cc" />
        <path
           inkscape:connector-curvature="0"
           id="path1652"
           d="m -573.97666,-48.785386 24.78255,6.64046"
           style="fill:none;stroke:#0029c1;stroke-width:5;stroke-linecap:round;stroke-linejoin:miter;stroke-miterlimit:4;stroke-dasharray:none;stroke-opacity:1"
           sodipodi:nodetypes="cc" />
      </g>
      <g
         inkscape:transform-center-x="-19.975201"
         transform="rotate(90,-561.11261,-23.620161)"
         inkscape:transform-center-y="-2.0745008e-06"
         id="g1662">
        <path
           sodipodi:nodetypes="sccccccsccs"
           id="path1656"
           d="m -573.94332,-63.60746 c -5.10391,0 -8.52847,1.791394 -4.82161,2.784642 3.7068,0.993243 6.54148,3.77661 6.54148,3.77661 v 33.462947 h 22.22168 v -33.462947 c 0,0 2.83468,-2.783367 6.54146,-3.77661 3.70687,-0.993248 0.28237,-2.784642 -4.82162,-2.784642 h -11.53337 -2.59463 z"
           style="fill:#3e3e3e;fill-opacity:1;stroke:none;stroke-width:0.63169628px;stroke-linecap:butt;stroke-linejoin:miter;stroke-opacity:1"
           inkscape:connector-curvature="0" />
        <path
           sodipodi:nodetypes="cc"
           inkscape:connector-curvature="0"
           id="path1658"
           d="m -573.97666,-55.669495 24.78255,6.64046"
           style="fill:none;stroke:#0029c1;stroke-width:5;stroke-linecap:round;stroke-linejoin:miter;stroke-miterlimit:4;stroke-dasharray:none;stroke-opacity:1" />
        <path
           sodipodi:nodetypes="cc"
           style="fill:none;stroke:#0029c1;stroke-width:5;stroke-linecap:round;stroke-linejoin:miter;stroke-miterlimit:4;stroke-dasharray:none;stroke-opacity:1"
           d="m -573.97666,-48.785386 24.78255,6.64046"
           id="path1660"
           inkscape:connector-curvature="0" />
      </g>
      <g
         id="g1670"
         inkscape:transform-center-y="19.975201"
         transform="rotate(180,-561.11261,-23.62016)"
         inkscape:transform-center-x="-3.0686606e-06">
        <path
           inkscape:connector-curvature="0"
           style="fill:#3e3e3e;fill-opacity:1;stroke:none;stroke-width:0.63169628px;stroke-linecap:butt;stroke-linejoin:miter;stroke-opacity:1"
           d="m -573.94332,-63.60746 c -5.10391,0 -8.52847,1.791394 -4.82161,2.784642 3.7068,0.993243 6.54148,3.77661 6.54148,3.77661 v 33.462947 h 22.22168 v -33.462947 c 0,0 2.83468,-2.783367 6.54146,-3.77661 3.70687,-0.993248 0.28237,-2.784642 -4.82162,-2.784642 h -11.53337 -2.59463 z"
           id="path1664"
           sodipodi:nodetypes="sccccccsccs" />
        <path
           style="fill:none;stroke:#0029c1;stroke-width:5;stroke-linecap:round;stroke-linejoin:miter;stroke-miterlimit:4;stroke-dasharray:none;stroke-opacity:1"
           d="m -573.97666,-55.669495 24.78255,6.64046"
           id="path1666"
           inkscape:connector-curvature="0"
           sodipodi:nodetypes="cc" />
        <path
           inkscape:connector-curvature="0"
           id="path1668"
           d="m -573.97666,-48.785386 24.78255,6.64046"
           style="fill:none;stroke:#0029c1;stroke-width:5;stroke-linecap:round;stroke-linejoin:miter;stroke-miterlimit:4;stroke-dasharray:none;stroke-opacity:1"
           sodipodi:nodetypes="cc" />
      </g>
      <g
         inkscape:transform-center-x="19.9752"
         transform="rotate(-90,-561.11261,-23.620159)"
         inkscape:transform-center-y="2.7221321e-06"
         id="g1678">
        <path
           sodipodi:nodetypes="sccccccsccs"
           id="path1672"
           d="m -573.94332,-63.60746 c -5.10391,0 -8.52847,1.791394 -4.82161,2.784642 3.7068,0.993243 6.54148,3.77661 6.54148,3.77661 v 33.462947 h 22.22168 v -33.462947 c 0,0 2.83468,-2.783367 6.54146,-3.77661 3.70687,-0.993248 0.28237,-2.784642 -4.82162,-2.784642 h -11.53337 -2.59463 z"
           style="fill:#3e3e3e;fill-opacity:1;stroke:none;stroke-width:0.63169628px;stroke-linecap:butt;stroke-linejoin:miter;stroke-opacity:1"
           inkscape:connector-curvature="0" />
        <path
           sodipodi:nodetypes="cc"
           inkscape:connector-curvature="0"
           id="path1674"
           d="m -573.97666,-55.669495 24.78255,6.64046"
           style="fill:none;stroke:#0029c1;stroke-width:5;stroke-linecap:round;stroke-linejoin:miter;stroke-miterlimit:4;stroke-dasharray:none;stroke-opacity:1" />
        <path
           sodipodi:nodetypes="cc"
           style="fill:none;stroke:#0029c1;stroke-width:5;stroke-linecap:round;stroke-linejoin:miter;stroke-miterlimit:4;stroke-dasharray:none;stroke-opacity:1"
           d="m -573.97666,-48.785386 24.78255,6.64046"
           id="path1676"
           inkscape:connector-curvature="0" />
      </g>
    </g>
    <circle
       style="opacity:1;fill:#3e3e3e;fill-opacity:1;stroke:#0029c1;stroke-width:5;stroke-linecap:round;stroke-linejoin:round;stroke-miterlimit:4;stroke-dasharray:none;stroke-dashoffset:0;stroke-opacity:1"
       id="circle1682"
       cx="-670.35553"
       cy="-74.415764"
       r="14.748623"
       inkscape:export-xdpi="200"
       inkscape:export-ydpi="200" />
    <g
       transform="translate(-10.95474,-50.795613)"
       inkscape:export-ydpi="200"
       inkscape:export-xdpi="200"
       id="g1716">
      <g
         id="g1690">
        <path
           sodipodi:nodetypes="sccccccsccs"
           id="path1684"
           d="m -573.94332,-63.60746 c -5.10391,0 -8.52847,1.791394 -4.82161,2.784642 3.7068,0.993243 6.54148,3.77661 6.54148,3.77661 v 33.462947 h 22.22168 v -33.462947 c 0,0 2.83468,-2.783367 6.54146,-3.77661 3.70687,-0.993248 0.28237,-2.784642 -4.82162,-2.784642 h -11.53337 -2.59463 z"
           style="fill:#3e3e3e;fill-opacity:1;stroke:none;stroke-width:0.63169628px;stroke-linecap:butt;stroke-linejoin:miter;stroke-opacity:1"
           inkscape:connector-curvature="0" />
        <path
           sodipodi:nodetypes="cc"
           inkscape:connector-curvature="0"
           id="path1686"
           d="m -573.97666,-55.669495 24.78255,6.64046"
           style="fill:none;stroke:#b70000;stroke-width:5;stroke-linecap:round;stroke-linejoin:miter;stroke-miterlimit:4;stroke-dasharray:none;stroke-opacity:1" />
        <path
           sodipodi:nodetypes="cc"
           style="fill:none;stroke:#b70000;stroke-width:5;stroke-linecap:round;stroke-linejoin:miter;stroke-miterlimit:4;stroke-dasharray:none;stroke-opacity:1"
           d="m -573.97666,-48.785386 24.78255,6.64046"
           id="path1688"
           inkscape:connector-curvature="0" />
      </g>
      <g
         id="g1698"
         inkscape:transform-center-y="-2.0745008e-06"
         transform="rotate(90,-561.11261,-23.620161)"
         inkscape:transform-center-x="-19.975201">
        <path
           inkscape:connector-curvature="0"
           style="fill:#3e3e3e;fill-opacity:1;stroke:none;stroke-width:0.63169628px;stroke-linecap:butt;stroke-linejoin:miter;stroke-opacity:1"
           d="m -573.94332,-63.60746 c -5.10391,0 -8.52847,1.791394 -4.82161,2.784642 3.7068,0.993243 6.54148,3.77661 6.54148,3.77661 v 33.462947 h 22.22168 v -33.462947 c 0,0 2.83468,-2.783367 6.54146,-3.77661 3.70687,-0.993248 0.28237,-2.784642 -4.82162,-2.784642 h -11.53337 -2.59463 z"
           id="path1692"
           sodipodi:nodetypes="sccccccsccs" />
        <path
           style="fill:none;stroke:#b70000;stroke-width:5;stroke-linecap:round;stroke-linejoin:miter;stroke-miterlimit:4;stroke-dasharray:none;stroke-opacity:1"
           d="m -573.97666,-55.669495 24.78255,6.64046"
           id="path1694"
           inkscape:connector-curvature="0"
           sodipodi:nodetypes="cc" />
        <path
           inkscape:connector-curvature="0"
           id="path1696"
           d="m -573.97666,-48.785386 24.78255,6.64046"
           style="fill:none;stroke:#b70000;stroke-width:5;stroke-linecap:round;stroke-linejoin:miter;stroke-miterlimit:4;stroke-dasharray:none;stroke-opacity:1"
           sodipodi:nodetypes="cc" />
      </g>
      <g
         inkscape:transform-center-x="-3.0686606e-06"
         transform="rotate(180,-561.11261,-23.62016)"
         inkscape:transform-center-y="19.975201"
         id="g1706">
        <path
           sodipodi:nodetypes="sccccccsccs"
           id="path1700"
           d="m -573.94332,-63.60746 c -5.10391,0 -8.52847,1.791394 -4.82161,2.784642 3.7068,0.993243 6.54148,3.77661 6.54148,3.77661 v 33.462947 h 22.22168 v -33.462947 c 0,0 2.83468,-2.783367 6.54146,-3.77661 3.70687,-0.993248 0.28237,-2.784642 -4.82162,-2.784642 h -11.53337 -2.59463 z"
           style="fill:#3e3e3e;fill-opacity:1;stroke:none;stroke-width:0.63169628px;stroke-linecap:butt;stroke-linejoin:miter;stroke-opacity:1"
           inkscape:connector-curvature="0" />
        <path
           sodipodi:nodetypes="cc"
           inkscape:connector-curvature="0"
           id="path1702"
           d="m -573.97666,-55.669495 24.78255,6.64046"
           style="fill:none;stroke:#b70000;stroke-width:5;stroke-linecap:round;stroke-linejoin:miter;stroke-miterlimit:4;stroke-dasharray:none;stroke-opacity:1" />
        <path
           sodipodi:nodetypes="cc"
           style="fill:none;stroke:#b70000;stroke-width:5;stroke-linecap:round;stroke-linejoin:miter;stroke-miterlimit:4;stroke-dasharray:none;stroke-opacity:1"
           d="m -573.97666,-48.785386 24.78255,6.64046"
           id="path1704"
           inkscape:connector-curvature="0" />
      </g>
      <g
         id="g1714"
         inkscape:transform-center-y="2.7221321e-06"
         transform="rotate(-90,-561.11261,-23.620159)"
         inkscape:transform-center-x="19.9752">
        <path
           inkscape:connector-curvature="0"
           style="fill:#3e3e3e;fill-opacity:1;stroke:none;stroke-width:0.63169628px;stroke-linecap:butt;stroke-linejoin:miter;stroke-opacity:1"
           d="m -573.94332,-63.60746 c -5.10391,0 -8.52847,1.791394 -4.82161,2.784642 3.7068,0.993243 6.54148,3.77661 6.54148,3.77661 v 33.462947 h 22.22168 v -33.462947 c 0,0 2.83468,-2.783367 6.54146,-3.77661 3.70687,-0.993248 0.28237,-2.784642 -4.82162,-2.784642 h -11.53337 -2.59463 z"
           id="path1708"
           sodipodi:nodetypes="sccccccsccs" />
        <path
           style="fill:none;stroke:#b70000;stroke-width:5;stroke-linecap:round;stroke-linejoin:miter;stroke-miterlimit:4;stroke-dasharray:none;stroke-opacity:1"
           d="m -573.97666,-55.669495 24.78255,6.64046"
           id="path1710"
           inkscape:connector-curvature="0"
           sodipodi:nodetypes="cc" />
        <path
           inkscape:connector-curvature="0"
           id="path1712"
           d="m -573.97666,-48.785386 24.78255,6.64046"
           style="fill:none;stroke:#b70000;stroke-width:5;stroke-linecap:round;stroke-linejoin:miter;stroke-miterlimit:4;stroke-dasharray:none;stroke-opacity:1"
           sodipodi:nodetypes="cc" />
      </g>
    </g>
    <circle
       inkscape:export-ydpi="200"
       inkscape:export-xdpi="200"
       r="14.748623"
       cy="-74.415764"
       cx="-572.06738"
       id="circle1718"
       style="opacity:1;fill:#3e3e3e;fill-opacity:1;stroke:#b70000;stroke-width:5;stroke-linecap:round;stroke-linejoin:round;stroke-miterlimit:4;stroke-dasharray:none;stroke-dashoffset:0;stroke-opacity:1" />
  </g>
</svg>
